# xmcd CD database file
#
# Track frame offsets:
#	172
#	17060
#	31612
#	47990
#	61540
#	71295
#	83012
#	100792
#	116475
#	128797
#	139685
#	149777
#	162142
#	173692
#	184615
#	196240
#	208702
#	221270
#	232095
#	246025
#	259930
#	269427
#
# Disc length: 3741 seconds
#
# Revision: 0
# Processed by: cddbd v1.5.1PL0 Copyright (c) Steve Scherf et al.
# Submitted via: CDex 1.51
#
DISCID=310e9b16
DTITLE=Santiago Jimeniz, Jr. - Corazón de Piedra
DYEAR=1992
DGENRE=Country
TTITLE0=Corazón de Piedra
TTITLE1=Oye Mi Guitarra
TTITLE2=Margarita margarita
TTITLE3=Tu Sentida Y Yo Sentido
TTITLE4=Marina Marina
TTITLE5=Nuestro Casamiento
TTITLE6=Triago Recuerdos De Ti
TTITLE7=Una Noche Me Embriague
TTITLE8=La Palma Y Yo
TTITLE9=La Viuda Matrera
TTITLE10=La Parranda
TTITLE11=Cuatro Velas
TTITLE12=Que Bonito Es San Antonio
TTITLE13=Me Acuerdo De Mis Tiempos
TTITLE14=La Viunda Loca
TTITLE15=La Cuquita
TTITLE16=El Diamante
TTITLE17=Soy Muy Matrero
TTITLE18=Sopilote Mojado
TTITLE19=La Japoneza
TTITLE20=El Leon De Ayer
TTITLE21=Venancio
EXTD=YEAR: 1992
EXTT0=
EXTT1=
EXTT2=
EXTT3=
EXTT4=
EXTT5=
EXTT6=
EXTT7=
EXTT8=
EXTT9=
EXTT10=
EXTT11=
EXTT12=
EXTT13=
EXTT14=
EXTT15=
EXTT16=
EXTT17=
EXTT18=
EXTT19=
EXTT20=
EXTT21=
PLAYORDER=
